<svg width="31" height="30" viewBox="0 0 31 30" fill="none" xmlns="http://www.w3.org/2000/svg">
  <path d="M29.3169 16.893L12.202 10.5858C11.2511 10.2372 10.3321 11.1562 10.6807 12.1071L16.9879 29.222C17.3682 30.2996 18.8897 30.2364 19.2383 29.1586L21.3934 22.0907C21.5201 21.7105 21.8055 21.4251 22.1858 21.2984L29.2536 19.1433C30.3628 18.7946 30.3944 17.2734 29.3168 16.8931L29.3169 16.893Z" fill="white" />
  <path d="M5.99064 3.99493C5.48348 3.48777 4.6279 3.48777 4.08887 3.99493C3.58171 4.50209 3.58171 5.35768 4.08887 5.89671L6.27583 8.08367C6.52942 8.33726 6.87808 8.46394 7.22672 8.46394C7.57537 8.46394 7.924 8.33726 8.17761 8.08367C8.68477 7.57651 8.68477 6.72093 8.17761 6.1819L5.99064 3.99493Z" fill="white" />
  <path d="M5.73668 13.7227C5.73668 12.9938 5.13443 12.3916 4.40551 12.3916L1.33116 12.3914C0.602249 12.3914 0 12.9936 0 13.7225C0 14.4514 0.602249 15.0537 1.33116 15.0537H4.40551C5.16623 15.0855 5.73668 14.4833 5.73668 13.7227V13.7227Z" fill="white" />
  <path d="M6.17989 19.4608L3.99292 21.6478C3.48576 22.155 3.48576 23.0106 3.99292 23.5496C4.2465 23.8032 4.59517 23.9298 4.94381 23.9298C5.29244 23.9298 5.64108 23.8032 5.89469 23.5496L8.08166 21.3626C8.58882 20.8555 8.58882 19.9999 8.08166 19.4608C7.54288 18.9221 6.68705 18.9221 6.17989 19.4608Z" fill="white" />
  <path d="M20.5063 8.52656C20.855 8.52656 21.2036 8.39988 21.4572 8.1463L23.6442 5.95933C24.1513 5.45217 24.1513 4.59659 23.6442 4.05756C23.137 3.55039 22.2814 3.55039 21.7424 4.05756L19.5554 6.24452C19.0483 6.75168 19.0483 7.60727 19.5554 8.1463C19.8406 8.39966 20.1577 8.52656 20.5063 8.52656Z" fill="white" />
  <path d="M13.8822 5.73668C14.6111 5.73668 15.2133 5.13443 15.2133 4.40551V1.33116C15.2133 0.602249 14.6111 0 13.8822 0C13.1533 0 12.551 0.602249 12.551 1.33116V4.40551C12.551 5.13443 13.153 5.73668 13.8822 5.73668Z" fill="white" />
</svg>