<svg width="24" height="24" viewBox="0 0 24 24" fill="none" xmlns="http://www.w3.org/2000/svg">
  <path d="M14.1928 23.578V22.2056H14.623C14.9937 22.2056 15.3397 22.1787 15.6633 22.127C15.9885 22.0731 16.2689 21.963 16.5068 21.7991C16.7447 21.6351 16.9363 21.397 17.0802 21.0893C17.2234 20.7808 17.2943 20.3712 17.2943 19.8591V12.2004H6.70706V19.8591C6.70706 20.3705 6.7779 20.7793 6.92108 21.09C7.06427 21.397 7.25517 21.6358 7.49381 21.7991C7.73245 21.9645 8.01508 22.0723 8.34395 22.127C8.67356 22.1794 9.0166 22.2064 9.37754 22.2064H9.80783V23.5788H0.333252V22.2064H0.747135C1.11777 22.2064 1.46379 22.1794 1.78818 22.127C2.11183 22.0738 2.39447 21.9645 2.63907 21.7991C2.88218 21.6336 3.07309 21.397 3.21254 21.09C3.34975 20.7815 3.41762 20.3705 3.41762 19.8591V3.83635C3.41762 3.35791 3.34603 2.97307 3.20359 2.67957C3.05892 2.38606 2.86503 2.1607 2.62192 2.00122C2.37806 1.84174 2.09543 1.73767 1.77029 1.68975C1.44887 1.64108 1.10658 1.61787 0.74639 1.61787H0.333252V0.245453H9.80783V1.61787H9.37754C9.01735 1.61787 8.67431 1.64408 8.34395 1.69798C8.01582 1.75039 7.73319 1.86046 7.49381 2.02518C7.25592 2.1899 7.06501 2.4265 6.92108 2.73572C6.7779 3.04345 6.70706 3.45375 6.70706 3.96438V10.5704H17.2928V3.96438C17.2928 3.453 17.2212 3.04345 17.0788 2.73497C16.9363 2.4265 16.7447 2.18915 16.506 2.02518C16.2674 1.86046 15.987 1.75114 15.6626 1.69798C15.3382 1.64408 14.9937 1.61787 14.6216 1.61787H14.1913V0.245453H23.6658V1.61787H23.2535C22.8821 1.61787 22.5368 1.64408 22.2124 1.69798C21.8888 1.75039 21.6069 1.86046 21.3615 2.02518C21.1184 2.1899 20.9275 2.4265 20.7888 2.73497C20.6501 3.0427 20.5822 3.453 20.5822 3.96438V20.0186C20.5822 20.4978 20.6546 20.8834 20.7962 21.1754C20.9394 21.4689 21.1341 21.6898 21.3772 21.8372C21.6203 21.987 21.9029 22.0851 22.2281 22.1337C22.5517 22.1817 22.8933 22.2056 23.252 22.2056H23.6666V23.578H14.1928Z" fill="white" />
</svg>