<svg width="40" height="41" viewBox="0 0 40 41" fill="none" xmlns="http://www.w3.org/2000/svg">
  <path d="M25.8358 35.268C23.7234 35.268 21.6517 34.4556 20.0269 32.8713L16.8178 29.6622C16.1678 29.0122 16.1678 27.9966 16.8178 27.3466C17.4679 26.6965 18.4835 26.6965 19.1335 27.3466L22.3426 30.5556C24.2924 32.5055 27.4204 32.5055 29.3297 30.5556C31.2795 28.6058 31.2795 25.4778 29.3297 23.5685L26.1206 20.3594C25.4706 19.7094 25.4706 18.6938 26.1206 18.0438C26.7706 17.3938 27.7862 17.3938 28.4363 18.0438L31.6453 21.2529C34.8544 24.4619 34.8544 29.6618 31.6453 32.8304C30.0203 34.4554 27.9483 35.2679 25.8358 35.2679V35.268Z" fill="white" />
  <path d="M12.7565 24.9078C12.3502 24.9078 11.9441 24.7455 11.6191 24.4205L8.40972 21.2519C5.20066 18.0428 5.20066 12.843 8.40972 9.67437C11.6188 6.46531 16.8186 6.46531 19.9872 9.67437L23.1963 12.8834C23.8463 13.5335 23.8463 14.549 23.1963 15.1991C22.5463 15.8491 21.5307 15.8491 20.8806 15.1991L17.6716 11.99C16.7373 11.0558 15.4781 10.5276 14.178 10.5276C12.8375 10.5276 11.6187 11.0558 10.6845 11.99C8.73463 13.9398 8.73463 17.0679 10.6845 18.9771L13.8935 22.1862C14.5435 22.8362 14.5435 23.8518 13.8935 24.5018C13.6093 24.7455 13.1624 24.9079 12.7564 24.9079L12.7565 24.9078Z" fill="white" />
  <path d="M22.6279 25.4733C22.2215 25.4733 21.8155 25.3109 21.4904 24.9859L16.2502 19.7862C15.6002 19.1361 15.6002 18.1206 16.2502 17.4705C16.9002 16.8205 17.9158 16.8205 18.5659 17.4705L23.8061 22.7107C24.4561 23.3608 24.4561 24.3763 23.8061 25.0264C23.481 25.3109 23.0747 25.4732 22.6279 25.4732V25.4733Z" fill="white" />
</svg>